<svg xmlns="http://www.w3.org/2000/svg" width="1440" height="900"><path d="M844,370L965,239L833,354Z" fill="#efd91e" stroke="#efd91e" stroke-width="1.51"/><path d="M965,239L900,168L833,354Z" fill="#f1ce23" stroke="#f1ce23" stroke-width="1.51"/><path d="M844,370L963,526L965,239Z" fill="#ecdf1a" stroke="#ecdf1a" stroke-width="1.51"/><path d="M1175,476L1116,213L965,239Z" fill="#e8cf1f" stroke="#e8cf1f" stroke-width="1.51"/><path d="M965,239L1116,213L900,168Z" fill="#efc326" stroke="#efc326" stroke-width="1.51"/><path d="M900,168L705,46L833,354Z" fill="#f6c827" stroke="#f6c827" stroke-width="1.51"/><path d="M909,-142L830,26L1119,-147Z" fill="#f4a62e" stroke="#f4a62e" stroke-width="1.51"/><path d="M844,370L788,583L963,526Z" fill="#e9e912" stroke="#e9e912" stroke-width="1.51"/><path d="M606,429L788,583L844,370Z" fill="#efef11" stroke="#efef11" stroke-width="1.51"/><path d="M606,429L844,370L833,354Z" fill="#f2e618" stroke="#f2e618" stroke-width="1.51"/><path d="M963,526L1175,476L965,239Z" fill="#e7e017" stroke="#e7e017" stroke-width="1.51"/><path d="M1199,680L1175,476L963,526Z" fill="#dcdb15" stroke="#dcdb15" stroke-width="1.51"/><path d="M552,269L606,429L833,354Z" fill="#f6de1f" stroke="#f6de1f" stroke-width="1.51"/><path d="M830,26L705,46L900,168Z" fill="#f8b72c" stroke="#f8b72c" stroke-width="1.51"/><path d="M1175,476L1251,370L1116,213Z" fill="#e4d21d" stroke="#e4d21d" stroke-width="1.51"/><path d="M1116,213L1119,-147L900,168Z" fill="#efaf2b" stroke="#efaf2b" stroke-width="1.51"/><path d="M1257,222L1212,130L1116,213Z" fill="#e8b927" stroke="#e8b927" stroke-width="1.51"/><path d="M1251,370L1257,222L1116,213Z" fill="#e5c522" stroke="#e5c522" stroke-width="1.51"/><path d="M705,46L552,269L833,354Z" fill="#f9ce26" stroke="#f9ce26" stroke-width="1.51"/><path d="M830,26L796,-49L705,46Z" fill="#fbae2e" stroke="#fbae2e" stroke-width="1.51"/><path d="M909,-142L796,-49L830,26Z" fill="#f8aa2e" stroke="#f8aa2e" stroke-width="1.51"/><path d="M788,583L997,699L963,526Z" fill="#e1e014" stroke="#e1e014" stroke-width="1.51"/><path d="M606,429L538,512L788,583Z" fill="#f0e717" stroke="#f0e717" stroke-width="1.51"/><path d="M788,583L889,830L997,699Z" fill="#dbdb15" stroke="#dbdb15" stroke-width="1.51"/><path d="M329,404L538,512L606,429Z" fill="#f6dc1f" stroke="#f6dc1f" stroke-width="1.51"/><path d="M538,512L530,546L788,583Z" fill="#eee219" stroke="#eee219" stroke-width="1.51"/><path d="M314,571L530,546L538,512Z" fill="#f1d420" stroke="#f1d420" stroke-width="1.51"/><path d="M930,-157L909,-142L1119,-147Z" fill="#f3a52e" stroke="#f3a52e" stroke-width="1.51"/><path d="M705,46L612,-43L552,269Z" fill="#fcb32d" stroke="#fcb32d" stroke-width="1.51"/><path d="M796,-49L612,-43L705,46Z" fill="#fdad2f" stroke="#fdad2f" stroke-width="1.51"/><path d="M770,-168L612,-43L796,-49Z" fill="#fdaf2e" stroke="#fdaf2e" stroke-width="1.51"/><path d="M997,699L1199,680L963,526Z" fill="#dad916" stroke="#dad916" stroke-width="1.51"/><path d="M1175,476L1289,614L1251,370Z" fill="#dcdb15" stroke="#dcdb15" stroke-width="1.51"/><path d="M909,-142L770,-168L796,-49Z" fill="#f9ab2e" stroke="#f9ab2e" stroke-width="1.51"/><path d="M1119,-147L830,26L900,168Z" fill="#f4a82e" stroke="#f4a82e" stroke-width="1.51"/><path d="M1212,130L1119,-147L1116,213Z" fill="#eca92b" stroke="#eca92b" stroke-width="1.51"/><path d="M1257,222L1299,24L1212,130Z" fill="#e7ae29" stroke="#e7ae29" stroke-width="1.51"/><path d="M1503,41L1299,24L1257,222Z" fill="#e4a62a" stroke="#e4a62a" stroke-width="1.51"/><path d="M1199,680L1289,614L1175,476Z" fill="#d7d516" stroke="#d7d516" stroke-width="1.51"/><path d="M1251,370L1572,200L1257,222Z" fill="#e0bf23" stroke="#e0bf23" stroke-width="1.51"/><path d="M530,546L587,671L788,583Z" fill="#eae118" stroke="#eae118" stroke-width="1.51"/><path d="M552,269L329,404L606,429Z" fill="#f9d124" stroke="#f9d124" stroke-width="1.51"/><path d="M398,57L428,238L552,269Z" fill="#fdb32e" stroke="#fdb32e" stroke-width="1.51"/><path d="M587,671L717,770L788,583Z" fill="#e4e115" stroke="#e4e115" stroke-width="1.51"/><path d="M997,699L1036,871L1199,680Z" fill="#d2d117" stroke="#d2d117" stroke-width="1.51"/><path d="M930,-157L770,-168L909,-142Z" fill="#f7a92e" stroke="#f7a92e" stroke-width="1.51"/><path d="M1290,-56L1119,-147L1212,130Z" fill="#eb9d2d" stroke="#eb9d2d" stroke-width="1.51"/><path d="M1116,-272L599,-217L770,-168Z" fill="#f9ab2e" stroke="#f9ab2e" stroke-width="1.51"/><path d="M717,770L889,830L788,583Z" fill="#dedd15" stroke="#dedd15" stroke-width="1.51"/><path d="M1299,24L1290,-56L1212,130Z" fill="#e8a02c" stroke="#e8a02c" stroke-width="1.51"/><path d="M1199,680L1382,793L1289,614Z" fill="#cecc17" stroke="#cecc17" stroke-width="1.51"/><path d="M889,830L1036,871L997,699Z" fill="#d3d217" stroke="#d3d217" stroke-width="1.51"/><path d="M431,-2L398,57L612,-43Z" fill="#fe9833" stroke="#fe9833" stroke-width="1.51"/><path d="M612,-43L398,57L552,269Z" fill="#fdaa2f" stroke="#fdaa2f" stroke-width="1.51"/><path d="M599,-217L431,-2L612,-43Z" fill="#fe9e32" stroke="#fe9e32" stroke-width="1.51"/><path d="M219,281L329,404L428,238Z" fill="#fcb82c" stroke="#fcb82c" stroke-width="1.51"/><path d="M428,238L329,404L552,269Z" fill="#fbc22a" stroke="#fbc22a" stroke-width="1.51"/><path d="M530,546L453,736L587,671Z" fill="#e9d31f" stroke="#e9d31f" stroke-width="1.51"/><path d="M1119,-147L1116,-272L930,-157Z" fill="#f1a32e" stroke="#f1a32e" stroke-width="1.51"/><path d="M1290,-56L1293,-163L1119,-147Z" fill="#ea9c2d" stroke="#ea9c2d" stroke-width="1.51"/><path d="M1416,-213L1293,-163L1290,-56Z" fill="#e6982d" stroke="#e6982d" stroke-width="1.51"/><path d="M1116,-272L770,-168L930,-157Z" fill="#f5a72e" stroke="#f5a72e" stroke-width="1.51"/><path d="M770,-168L599,-217L612,-43Z" fill="#fea930" stroke="#fea930" stroke-width="1.51"/><path d="M1293,-163L1116,-272L1119,-147Z" fill="#ec9e2d" stroke="#ec9e2d" stroke-width="1.51"/><path d="M1289,614L1508,484L1251,370Z" fill="#d7d715" stroke="#d7d715" stroke-width="1.51"/><path d="M1299,24L1503,41L1290,-56Z" fill="#e5982d" stroke="#e5982d" stroke-width="1.51"/><path d="M1475,596L1508,484L1289,614Z" fill="#d1cf17" stroke="#d1cf17" stroke-width="1.51"/><path d="M844,1061L1051,991L889,830Z" fill="#cfce17" stroke="#cfce17" stroke-width="1.51"/><path d="M889,830L1051,991L1036,871Z" fill="#cdcb17" stroke="#cdcb17" stroke-width="1.51"/><path d="M587,671L554,963L717,770Z" fill="#dfd31b" stroke="#dfd31b" stroke-width="1.51"/><path d="M314,571L453,736L530,546Z" fill="#edcd22" stroke="#edcd22" stroke-width="1.51"/><path d="M1036,871L1229,851L1199,680Z" fill="#cccb18" stroke="#cccb18" stroke-width="1.51"/><path d="M1382,793L1475,596L1289,614Z" fill="#cccb18" stroke="#cccb18" stroke-width="1.51"/><path d="M1572,200L1503,41L1257,222Z" fill="#e0ab28" stroke="#e0ab28" stroke-width="1.51"/><path d="M329,404L314,571L538,512Z" fill="#f5d023" stroke="#f5d023" stroke-width="1.51"/><path d="M1598,256L1572,200L1251,370Z" fill="#dcbd22" stroke="#dcbd22" stroke-width="1.51"/><path d="M1229,851L1382,793L1199,680Z" fill="#cac918" stroke="#cac918" stroke-width="1.51"/><path d="M1548,-142L1290,-56L1503,41Z" fill="#e2942d" stroke="#e2942d" stroke-width="1.51"/><path d="M1508,484L1598,256L1251,370Z" fill="#daca1c" stroke="#daca1c" stroke-width="1.51"/><path d="M1673,418L1598,256L1508,484Z" fill="#d9cd1b" stroke="#d9cd1b" stroke-width="1.51"/><path d="M1229,851L1385,1025L1382,793Z" fill="#c1bf19" stroke="#c1bf19" stroke-width="1.51"/><path d="M1036,871L1147,1013L1229,851Z" fill="#c8c618" stroke="#c8c618" stroke-width="1.51"/><path d="M744,1037L889,830L717,770Z" fill="#d5d416" stroke="#d5d416" stroke-width="1.51"/><path d="M398,57L219,281L428,238Z" fill="#fea830" stroke="#fea830" stroke-width="1.51"/><path d="M329,404L193,412L314,571Z" fill="#f9c827" stroke="#f9c827" stroke-width="1.51"/><path d="M189,63L219,281L398,57Z" fill="#ff9833" stroke="#ff9833" stroke-width="1.51"/><path d="M219,281L193,412L329,404Z" fill="#fcb92c" stroke="#fcb92c" stroke-width="1.51"/><path d="M1548,-142L1416,-213L1290,-56Z" fill="#e3952d" stroke="#e3952d" stroke-width="1.51"/><path d="M1293,-163L1416,-213L1116,-272Z" fill="#e89a2d" stroke="#e89a2d" stroke-width="1.51"/><path d="M1548,-142L1503,41L1654,40Z" fill="#e2942d" stroke="#e2942d" stroke-width="1.51"/><path d="M1051,991L1147,1013L1036,871Z" fill="#cac818" stroke="#cac818" stroke-width="1.51"/><path d="M219,281L93,210L193,412Z" fill="#fda830" stroke="#fda830" stroke-width="1.51"/><path d="M226,-65L225,28L398,57Z" fill="#ff8435" stroke="#ff8435" stroke-width="1.51"/><path d="M226,-65L398,57L431,-2Z" fill="#ff8a35" stroke="#ff8a35" stroke-width="1.51"/><path d="M453,736L554,963L587,671Z" fill="#e1cc1f" stroke="#e1cc1f" stroke-width="1.51"/><path d="M1051,991L1075,1117L1147,1013Z" fill="#c9c818" stroke="#c9c818" stroke-width="1.51"/><path d="M449,1029L554,963L453,736Z" fill="#dcc121" stroke="#dcc121" stroke-width="1.51"/><path d="M285,769L453,736L314,571Z" fill="#eac125" stroke="#eac125" stroke-width="1.51"/><path d="M554,963L744,1037L717,770Z" fill="#d8d119" stroke="#d8d119" stroke-width="1.51"/><path d="M744,1037L844,1061L889,830Z" fill="#d3d217" stroke="#d3d217" stroke-width="1.51"/><path d="M599,-217L448,-282L431,-2Z" fill="#ff9933" stroke="#ff9933" stroke-width="1.51"/><path d="M1116,-272L448,-282L599,-217Z" fill="#fdaf2e" stroke="#fdaf2e" stroke-width="1.51"/><path d="M225,28L189,63L398,57Z" fill="#ff8935" stroke="#ff8935" stroke-width="1.51"/><path d="M226,-65L189,63L225,28Z" fill="#ff7d36" stroke="#ff7d36" stroke-width="1.51"/><path d="M1654,40L1503,41L1572,200Z" fill="#e0a22a" stroke="#e0a22a" stroke-width="1.51"/><path d="M1702,627L1673,418L1508,484Z" fill="#d3d217" stroke="#d3d217" stroke-width="1.51"/><path d="M1702,627L1508,484L1475,596Z" fill="#d0ce17" stroke="#d0ce17" stroke-width="1.51"/><path d="M97,551L285,769L314,571Z" fill="#f0ba28" stroke="#f0ba28" stroke-width="1.51"/><path d="M1654,40L1572,200L1598,256Z" fill="#e0ad27" stroke="#e0ad27" stroke-width="1.51"/><path d="M291,-198L226,-65L431,-2Z" fill="#ff8635" stroke="#ff8635" stroke-width="1.51"/><path d="M1822,272L1654,40L1598,256Z" fill="#dfb126" stroke="#dfb126" stroke-width="1.51"/><path d="M448,-282L291,-198L431,-2Z" fill="#ff8e34" stroke="#ff8e34" stroke-width="1.51"/><path d="M1382,793L1550,800L1475,596Z" fill="#c6c518" stroke="#c6c518" stroke-width="1.51"/><path d="M1547,896L1550,800L1382,793Z" fill="#c1bf19" stroke="#c1bf19" stroke-width="1.51"/><path d="M1147,1013L1385,1025L1229,851Z" fill="#c3c219" stroke="#c3c219" stroke-width="1.51"/><path d="M844,1061L1075,1117L1051,991Z" fill="#cdcb17" stroke="#cdcb17" stroke-width="1.51"/><path d="M955,1214L1075,1117L844,1061Z" fill="#cecd17" stroke="#cecd17" stroke-width="1.51"/><path d="M-9,273L93,210L-89,24Z" fill="#ff8136" stroke="#ff8136" stroke-width="1.51"/><path d="M189,63L93,210L219,281Z" fill="#ff9533" stroke="#ff9533" stroke-width="1.51"/><path d="M193,412L97,551L314,571Z" fill="#f7be29" stroke="#f7be29" stroke-width="1.51"/><path d="M-6,506L97,551L193,412Z" fill="#f9b52c" stroke="#f9b52c" stroke-width="1.51"/><path d="M1550,800L1702,627L1475,596Z" fill="#cac818" stroke="#cac818" stroke-width="1.51"/><path d="M1822,28L1713,-55L1654,40Z" fill="#e2952c" stroke="#e2952c" stroke-width="1.51"/><path d="M285,769L449,1029L453,736Z" fill="#e0bc24" stroke="#e0bc24" stroke-width="1.51"/><path d="M554,963L640,1168L744,1037Z" fill="#d9cf1a" stroke="#d9cf1a" stroke-width="1.51"/><path d="M744,1037L640,1168L844,1061Z" fill="#d6d516" stroke="#d6d516" stroke-width="1.51"/><path d="M314,1036L449,1029L285,769Z" fill="#deb525" stroke="#deb525" stroke-width="1.51"/><path d="M1362,1108L1385,1025L1147,1013Z" fill="#c2c019" stroke="#c2c019" stroke-width="1.51"/><path d="M1550,800L1628,845L1702,627Z" fill="#c5c318" stroke="#c5c318" stroke-width="1.51"/><path d="M1385,1025L1547,896L1382,793Z" fill="#bdbb19" stroke="#bdbb19" stroke-width="1.51"/><path d="M1654,40L1713,-55L1548,-142Z" fill="#e2942d" stroke="#e2942d" stroke-width="1.51"/><path d="M1548,-142L1660,-268L1416,-213Z" fill="#e2942d" stroke="#e2942d" stroke-width="1.51"/><path d="M1822,272L1598,256L1673,418Z" fill="#dcc320" stroke="#dcc320" stroke-width="1.51"/><path d="M1702,627L1780,511L1673,418Z" fill="#d3d217" stroke="#d3d217" stroke-width="1.51"/><path d="M1880,583L1780,511L1702,627Z" fill="#cfce17" stroke="#cfce17" stroke-width="1.51"/><path d="M1547,896L1628,845L1550,800Z" fill="#c0be19" stroke="#c0be19" stroke-width="1.51"/><path d="M1647,1036L1628,845L1547,896Z" fill="#bdbb19" stroke="#bdbb19" stroke-width="1.51"/><path d="M537,1185L640,1168L554,963Z" fill="#dac91d" stroke="#dac91d" stroke-width="1.51"/><path d="M640,1168L955,1214L844,1061Z" fill="#d3d217" stroke="#d3d217" stroke-width="1.51"/><path d="M1075,1117L1362,1108L1147,1013Z" fill="#c5c418" stroke="#c5c418" stroke-width="1.51"/><path d="M1780,511L1822,272L1673,418Z" fill="#d9cf1a" stroke="#d9cf1a" stroke-width="1.51"/><path d="M1385,1025L1647,1036L1547,896Z" fill="#bdbb19" stroke="#bdbb19" stroke-width="1.51"/><path d="M1439,1190L1362,1108L1075,1117Z" fill="#c2c019" stroke="#c2c019" stroke-width="1.51"/><path d="M93,210L-9,273L193,412Z" fill="#fea031" stroke="#fea031" stroke-width="1.51"/><path d="M-89,24L93,210L189,63Z" fill="#ff7c36" stroke="#ff7c36" stroke-width="1.51"/><path d="M48,-105L189,63L226,-65Z" fill="#ff7437" stroke="#ff7437" stroke-width="1.51"/><path d="M97,551L144,860L285,769Z" fill="#ebaf2a" stroke="#ebaf2a" stroke-width="1.51"/><path d="M-9,273L-6,506L193,412Z" fill="#fdac2f" stroke="#fdac2f" stroke-width="1.51"/><path d="M449,1029L537,1185L554,963Z" fill="#dbc420" stroke="#dbc420" stroke-width="1.51"/><path d="M144,860L314,1036L285,769Z" fill="#e0ac27" stroke="#e0ac27" stroke-width="1.51"/><path d="M51,889L144,860L-28,757Z" fill="#e59e2c" stroke="#e59e2c" stroke-width="1.51"/><path d="M1713,-55L1660,-268L1548,-142Z" fill="#e2942d" stroke="#e2942d" stroke-width="1.51"/><path d="M1416,-213L1660,-268L1116,-272Z" fill="#e4962d" stroke="#e4962d" stroke-width="1.51"/><path d="M1116,-272L64,-308L448,-282Z" fill="#fe9d32" stroke="#fe9d32" stroke-width="1.51"/><path d="M1769,-104L1660,-268L1713,-55Z" fill="#e2942d" stroke="#e2942d" stroke-width="1.51"/><path d="M319,1078L537,1185L449,1029Z" fill="#ddbd22" stroke="#ddbd22" stroke-width="1.51"/><path d="M640,1168L537,1185L955,1214Z" fill="#d7d517" stroke="#d7d517" stroke-width="1.51"/><path d="M1822,28L1769,-104L1713,-55Z" fill="#e2942d" stroke="#e2942d" stroke-width="1.51"/><path d="M1822,272L1822,28L1654,40Z" fill="#e0a529" stroke="#e0a529" stroke-width="1.51"/><path d="M64,-308L48,-105L291,-198Z" fill="#ff7237" stroke="#ff7237" stroke-width="1.51"/><path d="M291,-198L48,-105L226,-65Z" fill="#ff7836" stroke="#ff7836" stroke-width="1.51"/><path d="M314,1036L319,1078L449,1029Z" fill="#deb624" stroke="#deb624" stroke-width="1.51"/><path d="M37,1188L319,1078L314,1036Z" fill="#e0a928" stroke="#e0a928" stroke-width="1.51"/><path d="M1780,511L1880,583L1822,272Z" fill="#d6d516" stroke="#d6d516" stroke-width="1.51"/><path d="M1822,272L1896,-245L1822,28Z" fill="#e2972c" stroke="#e2972c" stroke-width="1.51"/><path d="M1863,759L1880,583L1702,627Z" fill="#cbc918" stroke="#cbc918" stroke-width="1.51"/><path d="M1362,1108L1439,1190L1385,1025Z" fill="#bebc19" stroke="#bebc19" stroke-width="1.51"/><path d="M1628,845L1863,759L1702,627Z" fill="#c6c418" stroke="#c6c418" stroke-width="1.51"/><path d="M955,1214L1439,1190L1075,1117Z" fill="#c7c518" stroke="#c7c518" stroke-width="1.51"/><path d="M1439,1190L1647,1036L1385,1025Z" fill="#bdbb19" stroke="#bdbb19" stroke-width="1.51"/><path d="M144,860L-10,1050L314,1036Z" fill="#e0a22a" stroke="#e0a22a" stroke-width="1.51"/><path d="M-28,757L144,860L97,551Z" fill="#eca62c" stroke="#eca62c" stroke-width="1.51"/><path d="M-106,622L-28,757L97,551Z" fill="#f1a32e" stroke="#f1a32e" stroke-width="1.51"/><path d="M-106,622L97,551L-6,506Z" fill="#f6a82e" stroke="#f6a82e" stroke-width="1.51"/><path d="M-301,520L-106,622L-6,506Z" fill="#f7a92e" stroke="#f7a92e" stroke-width="1.51"/><path d="M48,-105L-89,24L189,63Z" fill="#ff6738" stroke="#ff6738" stroke-width="1.51"/><path d="M448,-282L64,-308L291,-198Z" fill="#ff8136" stroke="#ff8136" stroke-width="1.51"/><path d="M48,-105L-87,-98L-89,24Z" fill="#ff6138" stroke="#ff6138" stroke-width="1.51"/><path d="M1660,-268L64,-308L1116,-272Z" fill="#f4a72e" stroke="#f4a72e" stroke-width="1.51"/><path d="M1922,944L1863,759L1628,845Z" fill="#c0be19" stroke="#c0be19" stroke-width="1.51"/><path d="M-282,342L-6,506L-9,273Z" fill="#fea331" stroke="#fea331" stroke-width="1.51"/><path d="M-89,24L-229,104L-9,273Z" fill="#ff7b36" stroke="#ff7b36" stroke-width="1.51"/><path d="M22,-307L-87,-98L48,-105Z" fill="#ff6138" stroke="#ff6138" stroke-width="1.51"/><path d="M64,-308L22,-307L48,-105Z" fill="#ff6738" stroke="#ff6738" stroke-width="1.51"/><path d="M1880,583L1896,-245L1822,272Z" fill="#dfb326" stroke="#dfb326" stroke-width="1.51"/><path d="M1822,28L1896,-245L1769,-104Z" fill="#e2942d" stroke="#e2942d" stroke-width="1.51"/><path d="M1769,-104L1896,-245L1660,-268Z" fill="#e2942d" stroke="#e2942d" stroke-width="1.51"/><path d="M1439,1190L1742,1101L1647,1036Z" fill="#bdbb19" stroke="#bdbb19" stroke-width="1.51"/><path d="M1647,1036L1922,944L1628,845Z" fill="#bdbb19" stroke="#bdbb19" stroke-width="1.51"/><path d="M-315,-131L-229,104L-89,24Z" fill="#ff6138" stroke="#ff6138" stroke-width="1.51"/><path d="M-315,-131L-89,24L-87,-98Z" fill="#ff6138" stroke="#ff6138" stroke-width="1.51"/><path d="M51,889L-10,1050L144,860Z" fill="#e19a2b" stroke="#e19a2b" stroke-width="1.51"/><path d="M319,1078L37,1188L537,1185Z" fill="#dfb026" stroke="#dfb026" stroke-width="1.51"/><path d="M-165,939L-10,1050L51,889Z" fill="#e2942d" stroke="#e2942d" stroke-width="1.51"/><path d="M-165,939L51,889L-28,757Z" fill="#e4962d" stroke="#e4962d" stroke-width="1.51"/><path d="M-254,744L-28,757L-106,622Z" fill="#eea02e" stroke="#eea02e" stroke-width="1.51"/><path d="M1742,1101L1922,944L1647,1036Z" fill="#bdbb19" stroke="#bdbb19" stroke-width="1.51"/><path d="M1863,759L1922,944L1880,583Z" fill="#c5c318" stroke="#c5c318" stroke-width="1.51"/><path d="M1880,583L1922,944L1896,-245Z" fill="#d8d218" stroke="#d8d218" stroke-width="1.51"/><path d="M-229,104L-282,342L-9,273Z" fill="#ff8d34" stroke="#ff8d34" stroke-width="1.51"/><path d="M1742,1101L1826,1124L1922,944Z" fill="#bdbb19" stroke="#bdbb19" stroke-width="1.51"/><path d="M1439,1190L1826,1124L1742,1101Z" fill="#bdbb19" stroke="#bdbb19" stroke-width="1.51"/><path d="M-282,342L-301,520L-6,506Z" fill="#fdae2e" stroke="#fdae2e" stroke-width="1.51"/><path d="M-10,1050L37,1188L314,1036Z" fill="#e19f2a" stroke="#e19f2a" stroke-width="1.51"/><path d="M537,1185L37,1188L955,1214Z" fill="#dcc320" stroke="#dcc320" stroke-width="1.51"/><path d="M-141,1064L37,1188L-10,1050Z" fill="#e2942d" stroke="#e2942d" stroke-width="1.51"/><path d="M-299,636L-254,744L-106,622Z" fill="#f0a22e" stroke="#f0a22e" stroke-width="1.51"/><path d="M-254,744L-165,939L-28,757Z" fill="#e7992d" stroke="#e7992d" stroke-width="1.51"/><path d="M-301,520L-299,636L-106,622Z" fill="#f4a72e" stroke="#f4a72e" stroke-width="1.51"/><path d="M-229,104L-315,-131L-282,342Z" fill="#ff7537" stroke="#ff7537" stroke-width="1.51"/><path d="M-282,342L-315,-131L-301,520Z" fill="#ff8e34" stroke="#ff8e34" stroke-width="1.51"/><path d="M22,-307L-237,-220L-87,-98Z" fill="#ff6138" stroke="#ff6138" stroke-width="1.51"/><path d="M-165,939L-141,1064L-10,1050Z" fill="#e2942d" stroke="#e2942d" stroke-width="1.51"/><path d="M-232,1190L-141,1064L-165,939Z" fill="#e2942d" stroke="#e2942d" stroke-width="1.51"/><path d="M-232,1190L-165,939L-254,744Z" fill="#e2942d" stroke="#e2942d" stroke-width="1.51"/><path d="M-237,-220L-315,-131L-87,-98Z" fill="#ff6138" stroke="#ff6138" stroke-width="1.51"/><path d="M-301,520L-315,-131L-299,636Z" fill="#fe9e32" stroke="#fe9e32" stroke-width="1.51"/><path d="M-141,1064L-232,1190L37,1188Z" fill="#e2942d" stroke="#e2942d" stroke-width="1.51"/><path d="M37,1188L-232,1190L955,1214Z" fill="#e0ac27" stroke="#e0ac27" stroke-width="1.51"/><path d="M-299,636L-232,1190L-254,744Z" fill="#e5972d" stroke="#e5972d" stroke-width="1.51"/></svg>